<?xml version="1.0" encoding="UTF-8"?>
<svg width="100px" height="100px" viewBox="0 0 100 100" version="1.1" xmlns="http://www.w3.org/2000/svg" xmlns:xlink="http://www.w3.org/1999/xlink">
    <!-- Generator: Sketch 43.2 (39069) - http://www.bohemiancoding.com/sketch -->
    <title>Artboard</title>
    <desc>Created with Sketch.</desc>
    <defs></defs>
    <g id="Page-1" stroke="none" stroke-width="1" fill="none" fill-rule="evenodd" stroke-linecap="round">
        <g id="Artboard" stroke="#FFFFFF" stroke-width="4">
            <g id="g83" transform="translate(13.000000, 2.000000)">
                <path d="M73.48,82.6874483 C73.48,77.6590345 70.6329018,73.0626207 66.1276218,70.8132414 L50.2886691,62.9081379 C48.2424727,61.8868966 46.9490909,59.798069 46.9490909,57.513931 L46.9490909,51.3103448 C47.3934836,50.8055172 47.9042036,50.1550345 48.4480873,49.3870345 C50.6053818,46.3448276 52.2386909,42.9964138 53.3712291,39.4824828 C55.4008436,38.8584828 56.8981818,36.9848276 56.8981818,34.7586207 L56.8981818,28.137931 C56.8981818,26.6813793 56.2498327,25.3787586 55.24,24.4684138 L55.24,14.8965517 C55.24,14.8965517 57.2082618,0 37,0 C16.79008,0 18.76,14.8965517 18.76,14.8965517 L18.76,24.4684138 C17.7501673,25.3787586 17.1018182,26.6813793 17.1018182,28.137931 L17.1018182,34.7586207 C17.1018182,36.5031724 18.0204509,38.0375172 19.3950836,38.9246897 C21.0516073,46.128 25.3927273,51.3103448 25.3927273,51.3103448 L25.3927273,57.36 C25.3927273,59.5663448 24.1855709,61.5972414 22.24384,62.6548966 L7.4512,70.7089655 C3.17806545,73.0344828 0.52,77.5051034 0.52,82.3630345 L0.52,86.0689655 L0.52,87.7241379 C0.52,92.294069 16.8530909,96 37,96 C57.1469091,96 73.48,92.294069 73.48,87.7241379 L73.48,86.0689655 L73.48,82.6874483 L73.48,82.6874483 Z" id="Path"></path>
            </g>
        </g>
    </g>
</svg>